<?xml version="1.0" encoding="UTF-8"?>
<!DOCTYPE svg PUBLIC "-//W3C//DTD SVG 1.1//EN" "http://www.w3.org/Graphics/SVG/1.1/DTD/svg11.dtd">
<!-- Creator: CorelDRAW X7 -->
<svg xmlns="http://www.w3.org/2000/svg" xml:space="preserve" width="52px" height="40px" version="1.1" style="shape-rendering:geometricPrecision; text-rendering:geometricPrecision; image-rendering:optimizeQuality; fill-rule:evenodd; clip-rule:evenodd"
viewBox="0 0 520 400"
 xmlns:xlink="http://www.w3.org/1999/xlink">
 <defs>
  <style type="text/css">
   <![CDATA[
    .fil0 {fill:white}
   ]]>
  </style>
 </defs>
 <g id="Layer_x0020_1">
  <metadata id="CorelCorpID_0Corel-Layer"/>
  <g id="_1536766606256">
   <path class="fil0" d="M239 207c2,2 5,7 8,10 12,14 113,134 116,140l-209 37c-3,0 -27,4 -29,6l393 0c-2,-6 -49,-86 -53,-94l-134 -232c-5,-7 -9,-15 -13,-23l-10 -17c-1,-2 -3,-5 -5,-6l-64 179z"/>
   <path class="fil0" d="M2 356l118 0c10,-18 30,-66 41,-89 15,-29 28,-59 42,-89 13,-29 28,-59 41,-89 9,-20 36,-74 41,-89l-87 73c-9,9 -59,49 -64,54 -2,2 -122,206 -132,229z"/>
  </g>
 </g>
</svg>
