<?xml version="1.0" encoding="UTF-8"?>
<!DOCTYPE svg PUBLIC "-//W3C//DTD SVG 1.1//EN" "http://www.w3.org/Graphics/SVG/1.1/DTD/svg11.dtd">
<!-- Creator: CorelDRAW X7 -->
<svg xmlns="http://www.w3.org/2000/svg" xml:space="preserve" width="150px" height="45px" version="1.1" style="shape-rendering:geometricPrecision; text-rendering:geometricPrecision; image-rendering:optimizeQuality; fill-rule:evenodd; clip-rule:evenodd"
viewBox="0 0 1500 450"
 xmlns:xlink="http://www.w3.org/1999/xlink">
 <defs>
  <style type="text/css">
   <![CDATA[
    .fil0 {fill:white}
   ]]>
  </style>
 </defs>
 <g id="Layer_x0020_1">
  <metadata id="CorelCorpID_0Corel-Layer"/>
  <g id="_1745379366896">
   <path class="fil0" d="M263 265c-1,5 -3,12 -4,17 -2,5 -5,11 -7,16 -44,93 -183,105 -166,12 12,-68 89,-127 150,-104 19,7 35,33 27,59zm84 -41c0,-31 -11,-57 -29,-73 -25,-22 -50,-26 -86,-26 -17,0 -30,4 -44,7 -14,3 -34,13 -39,14 1,-6 3,-11 6,-16l18 -47c10,-22 24,-47 13,-64 -11,-17 -41,-12 -60,6 -7,7 -13,15 -17,26 -6,19 -54,138 -62,155l-24 63c-6,16 -18,47 -21,64 -9,58 13,95 58,110 13,4 22,5 37,6 15,2 27,0 41,-1 22,-2 48,-12 67,-21 39,-18 73,-50 94,-78 24,-32 48,-79 48,-125z"/>
   <path class="fil0" d="M631 250c0,23 -9,40 -16,59 -7,17 -13,34 -20,50 -6,17 -12,34 -19,51 -4,9 -6,19 -1,28 13,23 59,11 74,-20 5,-8 7,-19 12,-29l11 -29c8,-21 15,-40 23,-60 8,-20 16,-39 18,-64 5,-56 -21,-88 -60,-103 -17,-7 -51,-11 -74,-7 -11,2 -22,5 -32,8 -6,2 -10,3 -14,5 -4,2 -12,6 -17,7 1,-6 12,-32 14,-40 5,-13 29,-66 30,-75 2,-37 -53,-36 -76,2 -5,8 -61,153 -67,167 -7,18 -14,38 -22,56 -12,26 -30,81 -44,111 -4,10 -20,50 -21,58 -1,34 48,31 70,4 7,-8 10,-16 14,-26 9,-22 48,-126 56,-138 15,-23 36,-44 62,-55 42,-17 99,-12 99,40z"/>
   <path class="fil0" d="M1187 4c-86,0 -165,97 -132,165 29,61 144,40 189,-45 32,-60 4,-120 -57,-120z"/>
   <path class="fil0" d="M1432 4c-58,0 -101,34 -129,81 -28,48 -15,118 58,119 103,0 184,-135 110,-188 -9,-6 -25,-12 -39,-12z"/>
   <path class="fil0" d="M1036 450c30,0 57,-10 81,-27 87,-64 76,-173 -14,-172 -88,1 -159,101 -131,160 11,22 33,39 64,39z"/>
   <path class="fil0" d="M802 134c0,57 48,79 99,67 38,-9 76,-39 95,-74 18,-31 23,-79 -4,-104 -30,-27 -73,-21 -107,-5 -26,12 -55,38 -68,64 -7,13 -15,34 -15,52z"/>
  </g>
 </g>
</svg>
