<?xml version="1.0" encoding="UTF-8"?>
<!DOCTYPE svg PUBLIC "-//W3C//DTD SVG 1.1//EN" "http://www.w3.org/Graphics/SVG/1.1/DTD/svg11.dtd">
<!-- Creator: CorelDRAW X7 -->
<svg xmlns="http://www.w3.org/2000/svg" xml:space="preserve" width="120px" height="150px" version="1.1" style="shape-rendering:geometricPrecision; text-rendering:geometricPrecision; image-rendering:optimizeQuality; fill-rule:evenodd; clip-rule:evenodd"
viewBox="0 0 1200 1500"
 xmlns:xlink="http://www.w3.org/1999/xlink">
 <defs>
  <style type="text/css">
   <![CDATA[
    .fil0 {fill:white}
   ]]>
  </style>
 </defs>
 <g id="Layer_x0020_1">
  <metadata id="CorelCorpID_0Corel-Layer"/>
  <path class="fil0" d="M1199 760l-885 554c-6,3 -13,2 -17,-4 -1,-2 -2,-4 -2,-7l0 0 0 -174c0,-4 3,-8 7,-11l589 -368 -590 -369c-4,-2 -6,-6 -6,-10l0 0 0 -174c0,-7 6,-13 12,-13 3,0 5,1 7,3l885 553c6,3 8,11 4,16 -1,2 -2,3 -4,4zm-1180 -758l147 92c4,2 6,6 6,10l0 0 0 342 470 294c6,3 8,11 4,16 -1,2 -2,3 -4,4l-470 294 0 342c0,4 -2,8 -6,10l-147 92c-6,4 -14,2 -17,-4 -1,-2 -2,-4 -2,-6l0 0 0 -1476c0,-7 6,-12 12,-12 3,0 5,1 7,2z"/>
 </g>
</svg>
