<?xml version="1.0" encoding="UTF-8"?>
<!DOCTYPE svg PUBLIC "-//W3C//DTD SVG 1.1//EN" "http://www.w3.org/Graphics/SVG/1.1/DTD/svg11.dtd">
<!-- Creator: CorelDRAW X7 -->
<svg xmlns="http://www.w3.org/2000/svg" xml:space="preserve" width="100px" height="100px" version="1.1" style="shape-rendering:geometricPrecision; text-rendering:geometricPrecision; image-rendering:optimizeQuality; fill-rule:evenodd; clip-rule:evenodd"
viewBox="0 0 1000 1000"
 xmlns:xlink="http://www.w3.org/1999/xlink">
 <defs>
  <style type="text/css">
   <![CDATA[
    .fil0 {fill:white}
   ]]>
  </style>
 </defs>
 <g id="Layer_x0020_1">
  <metadata id="CorelCorpID_0Corel-Layer"/>
  <path class="fil0" d="M67 0l866 0c37,0 67,31 67,68l0 1c0,37 -30,68 -67,68l-866 0c-37,0 -67,-31 -67,-68l0 -1c0,-37 30,-68 67,-68zm0 431l866 0c37,0 67,31 67,69l0 0c0,38 -30,69 -67,69l-866 0c-37,0 -67,-31 -67,-69l0 0c0,-38 30,-69 67,-69zm0 432l866 0c37,0 67,31 67,68l0 1c0,37 -30,68 -67,68l-866 0c-37,0 -67,-31 -67,-68l0 -1c0,-37 30,-68 67,-68z"/>
 </g>
</svg>
