<?xml version="1.0" encoding="UTF-8"?>
<!DOCTYPE svg PUBLIC "-//W3C//DTD SVG 1.1//EN" "http://www.w3.org/Graphics/SVG/1.1/DTD/svg11.dtd">
<!-- Creator: CorelDRAW X7 -->
<svg xmlns="http://www.w3.org/2000/svg" xml:space="preserve" width="150px" height="123px" version="1.1" style="shape-rendering:geometricPrecision; text-rendering:geometricPrecision; image-rendering:optimizeQuality; fill-rule:evenodd; clip-rule:evenodd"
viewBox="0 0 1500 1230"
 xmlns:xlink="http://www.w3.org/1999/xlink">
 <defs>
  <style type="text/css">
   <![CDATA[
    .fil0 {fill:#123A42}
   ]]>
  </style>
 </defs>
 <g id="Layer_x0020_1">
  <metadata id="CorelCorpID_0Corel-Layer"/>
  <path class="fil0" d="M112 393c7,21 17,40 29,58 17,27 40,52 65,72 25,19 52,34 81,44 27,9 56,14 85,13l0 0c88,-4 291,-106 391,-156l0 0c-5,-4 -10,-8 -17,-10l0 0c-10,-5 -23,-9 -40,-10 -15,-2 -34,-1 -55,1 -10,1 -24,2 -38,4 -182,18 -317,32 -501,-16zm165 253c10,9 22,18 35,25 26,16 54,28 84,35 31,7 62,9 92,6 29,-3 57,-10 83,-24 6,-3 13,-7 19,-11 5,-3 11,-7 17,-12l0 0c17,-15 33,-31 49,-46 16,-16 32,-33 48,-49l0 0c4,-5 6,-7 8,-9 10,-10 24,-25 37,-40 -37,19 -76,38 -117,56 -63,28 -128,54 -195,74l0 0 -1 0c-18,5 -36,8 -54,9 -18,1 -37,1 -55,-1 -12,-2 -32,-7 -50,-13zm579 -223c34,-52 60,-106 70,-155 7,-32 8,-62 -1,-86 -8,-22 -24,-39 -51,-50 -25,-9 -59,-12 -103,-8l-3 0c-235,24 -562,57 -762,-106 -11,47 -7,98 9,146 18,56 51,108 97,145 179,51 297,39 493,19 11,-1 22,-2 34,-3l0 0 3 -1 0 0c28,-3 53,-3 75,0 24,2 45,8 62,16 21,9 38,21 51,36 12,14 20,29 26,47zm-132 715c23,22 42,37 61,50 20,12 40,21 67,29 21,6 39,10 56,12 17,2 34,1 54,-1 112,-11 197,-106 277,-196 12,-14 24,-28 37,-42 32,-34 62,-74 83,-116 17,-34 27,-69 27,-103 0,-8 0,-17 -1,-27 0,-9 0,-19 -1,-27 -1,-5 -3,-14 -6,-23 -3,-11 -6,-22 -9,-29l0 0c-8,-21 -18,-41 -31,-59 -13,-20 -29,-38 -49,-56 -4,-4 -24,-1 -47,5 -25,6 -52,17 -73,27l8 7c53,47 93,83 99,143 9,89 -80,182 -152,257 -11,12 -22,23 -33,35 -46,50 -92,83 -140,93 -50,11 -99,-4 -150,-50 -42,-39 -59,-83 -57,-129 3,-49 29,-98 71,-144 20,-22 38,-42 56,-63 104,-117 210,-237 366,-277 21,-5 44,-9 67,-13 28,-4 55,-7 76,-8 26,-2 40,-2 53,-3 5,0 10,0 16,0l0 0c17,-1 44,-2 51,-8 0,0 -1,1 -1,0 -4,-6 -11,-13 -19,-21l-419 -385c-15,-14 -22,-19 -22,-18 -8,8 -6,47 -3,97 3,55 6,122 -3,183 -24,143 -120,245 -217,346 -33,35 -66,69 -96,105 -36,44 -62,87 -76,133 -13,45 -14,93 0,144 7,23 17,48 32,73 12,21 28,41 48,59zm-340 11l45 42c13,12 25,23 35,27 7,3 13,3 19,-4 21,-23 20,-25 11,-51l-2 -5 -3 -9 6 -7 59 -64c-9,-24 -16,-43 -19,-63 -4,-23 -4,-47 0,-82 0,-1 1,-2 1,-3l-124 135 -7 7 -9 -3 -5 -1c-27,-7 -29,-8 -50,15 -7,7 -7,13 -3,19 5,10 17,21 30,33l16 14z"/>
 </g>
</svg>
